<?xml version="1.0" encoding="UTF-8"?>
<svg id="Layer_2" data-name="Layer 2" xmlns="http://www.w3.org/2000/svg" viewBox="0 0 512.19 646.15">
  <defs>
    <style>
      .cls-1 {
        letter-spacing: -.01em;
      }

      .cls-2 {
        letter-spacing: 0em;
      }

      .cls-3 {
        font-family: ArialRoundedMTBold, 'Arial Rounded MT Bold';
        font-size: 156.21px;
      }

      .cls-3, .cls-4 {
        fill: #f2623a;
      }

      .cls-5 {
        fill: #fab086;
      }

      .cls-5, .cls-6, .cls-7, .cls-4 {
        stroke-width: 0px;
      }

      .cls-6 {
        fill: #cfe189;
      }

      .cls-7 {
        fill: #92c53e;
      }
    </style>
  </defs>
  <g id="Layer_2-2" data-name="Layer 2">
    <path class="cls-4" d="m431.43,223.72s37.9,54.15,0,70.68c-37.9,16.53-89.78-1.14-98.9-2.85-9.12-1.71-99.75-41.65-103.74-39.94-3.99,1.71,69.54-37.61,129.4-41.03,59.85-3.42,73.25,13.14,73.25,13.14Z"/>
    <path class="cls-5" d="m5.32,244.26c1.42-3.17,3.25-6.14,5.42-8.85,25.1-31.44,207.78-242.42,420.69-12,0,0-36.4-41.22-206.55,29.82-153.14,63.94-194.03,49.73-200.67,46.25-.86-.45-1.73-.89-2.61-1.29-6.77-3.08-32.61-17.58-16.27-53.92Z"/>
    <path class="cls-4" d="m24.95,544.05s-52.13-66.7,11.86-83.41c0,0,38.39-8.71,95.18,14.48,56.79,23.2,71.59,35.69,93.98,37.29,0,0-59.24,27.43-110.81,34.66,0,0-49.02,17.77-90.21-3.03Z"/>
    <path class="cls-5" d="m23.21,541.51s33.33,39.19,205.43-30.39c0,0,147.3-79.18,208.89-39.19,50.68,32.91-53.54,112.94-92.05,140.26-10.41,7.39-21.77,13.35-33.79,17.64-37.84,13.51-122.48,34.23-200.1-13.27-2.24-1.37-4.55-2.63-6.93-3.75-12.26-5.76-55.57-28.37-81.46-71.29Z"/>
    <path class="cls-7" d="m280.55,123.94s15.48-85.79,9.08-107.85c-.67-2.3-.86-4.71-.39-7.05.75-3.8,2.83-8.51,8.45-8.99,9.56-.82,11.75,10.68,11.75,10.68,0,0,18.35,54.93-19.72,115.61l-9.16-2.39Z"/>
    <path class="cls-6" d="m289.71,126.33s29.36-73.28,97.57-73.28,124.92,26.82,124.92,26.82c0,0-34.87,75.87-89.67,72.42-54.8-3.45-89.67-20.31-89.67-20.31,0,0-28.83-11.7-43.15-5.66Z"/>
    <text class="cls-3" transform="translate(0 437.85)"><tspan class="cls-1" x="0" y="0">Y</tspan><tspan x="95.58" y="0">O</tspan><tspan class="cls-1" x="219.3" y="0">N</tspan><tspan class="cls-2" x="335.92" y="0">A</tspan></text>
  </g>
</svg>